{"glyphs":{"\u0000":{"ha":0,"x_min":0,"x_max":0,"o":""},"\r":{"ha":347,"x_min":0,"x_max":0,"o":""}," ":{"ha":361,"x_min":0,"x_max":0,"o":""},"A":{"ha":882,"x_min":0,"x_max":949,"o":"m 132 536 l 138 556 l 607 972 l 949 558 l 804 0 l 536 0 l 132 536 m 0 0 l 65 265 l 265 0 l 0 0 z "},"B":{"ha":994,"x_min":0,"x_max":997,"o":"m 239 972 l 735 972 l 997 676 l 743 465 l 890 254 l 611 0 l 604 0 l 146 594 l 239 972 m 0 0 l 78 317 l 321 0 l 0 0 z "},"C":{"ha":1063,"x_min":0,"x_max":1061,"o":"m 0 0 l 235 972 l 543 972 l 365 232 l 875 232 l 824 0 l 0 0 m 656 826 l 690 972 l 1061 972 l 1026 826 l 656 826 z "},"D":{"ha":992,"x_min":0,"x_max":993,"o":"m 764 972 l 993 678 l 871 192 l 613 0 l 147 601 l 239 972 l 764 972 m 81 326 l 332 0 l 0 0 l 81 326 z "},"E":{"ha":1060,"x_min":0,"x_max":1061,"o":"m 235 972 l 543 972 l 453 597 l 608 597 l 553 374 l 399 374 l 342 143 l 858 143 l 822 0 l 0 0 l 235 972 m 690 972 l 1061 972 l 1026 826 l 656 826 l 690 972 z "},"F":{"ha":1060,"x_min":0,"x_max":1060,"o":"m 1060 972 l 983 657 l 157 657 l 232 972 l 1060 972 m 772 474 l 739 339 l 388 339 l 308 0 l 0 0 l 85 361 l 113 474 l 772 474 z "},"G":{"ha":1064,"x_min":0,"x_max":1061,"o":"m 908 561 l 949 506 l 824 3 l 456 3 l 594 561 l 908 561 m 1061 972 l 1026 826 l 508 826 l 308 0 l 0 0 l 235 972 l 1061 972 z "},"H":{"ha":1065,"x_min":0,"x_max":1065,"o":"m 428 547 l 592 547 l 694 972 l 1065 972 l 828 0 l 460 0 l 558 411 l 394 411 l 428 547 m 0 0 l 239 972 l 465 972 l 231 0 l 0 0 z "},"I":{"ha":606,"x_min":0,"x_max":607,"o":"m 607 972 l 368 0 l 0 0 l 235 972 l 607 972 z "},"J":{"ha":932,"x_min":0,"x_max":932,"o":"m 607 972 l 401 136 l 861 136 l 828 0 l 0 0 l 235 972 l 607 972 m 932 450 l 889 274 l 665 274 l 708 450 l 932 450 z "},"K":{"ha":1104,"x_min":0,"x_max":1107,"o":"m 239 972 l 692 972 l 403 754 l 478 649 l 906 972 l 1107 972 l 1071 826 l 597 469 l 939 0 l 476 0 l 122 501 l 239 972 m 0 0 l 82 335 l 318 0 l 0 0 z "},"L":{"ha":863,"x_min":0,"x_max":861,"o":"m 607 972 l 401 136 l 861 136 l 828 0 l 0 0 l 235 972 l 607 972 z "},"M":{"ha":1390,"x_min":0,"x_max":1388,"o":"m 239 972 l 293 972 l 688 450 l 1333 972 l 1388 972 l 1293 571 l 624 35 l 160 650 l 239 972 m 90 371 l 371 0 l 0 0 l 90 371 m 792 0 l 1246 371 l 1158 0 l 792 0 z "},"N":{"ha":1142,"x_min":0,"x_max":1143,"o":"m 253 971 l 300 971 l 932 131 l 900 0 l 667 0 l 169 658 l 253 971 m 0 0 l 128 494 l 514 0 l 0 0 m 739 686 l 1089 972 l 1143 972 l 986 346 l 739 686 z "},"O":{"ha":951,"x_min":0,"x_max":954,"o":"m 721 972 l 954 596 l 826 71 l 289 972 l 721 972 m 143 954 l 710 0 l 194 0 l 0 371 l 143 954 z "},"P":{"ha":1068,"x_min":0,"x_max":1071,"o":"m 175 711 l 617 126 l 331 126 l 303 0 l 0 0 l 175 711 m 1071 972 l 865 165 l 363 832 l 397 972 l 1071 972 z "},"Q":{"ha":1068,"x_min":0,"x_max":1065,"o":"m 1065 972 l 919 379 l 1058 17 l 390 972 l 1065 972 m 238 967 l 911 1 l 828 1 l 828 0 l 0 0 l 238 967 z "},"R":{"ha":1056,"x_min":0,"x_max":1056,"o":"m 239 972 l 450 668 l 303 0 l 0 0 l 239 972 m 1056 972 l 894 314 l 421 972 l 1056 972 m 624 424 l 924 0 l 524 0 l 624 424 z "},"S":{"ha":1069,"x_min":0,"x_max":1069,"o":"m 0 0 l 121 492 l 389 138 l 553 138 l 165 650 l 244 972 l 507 972 l 610 836 l 401 836 l 881 203 l 832 1 l 492 1 l 493 0 l 0 0 m 576 972 l 1069 972 l 949 481 l 576 972 z "},"T":{"ha":864,"x_min":0,"x_max":864,"o":"m 864 972 l 810 749 l 0 749 l 54 972 l 864 972 m 551 614 l 400 0 l 33 0 l 182 614 l 551 614 z "},"U":{"ha":1064,"x_min":-3,"x_max":1064,"o":"m 247 972 l 383 972 l 213 300 l 436 300 l 607 972 l 1064 972 l 936 469 l 326 0 l -3 0 l 247 972 m 882 257 l 817 0 l 549 0 l 882 257 z "},"V":{"ha":1151,"x_min":0,"x_max":1151,"o":"m 629 972 l 1151 972 l 417 0 l 339 0 l 139 575 l 629 972 m 357 972 l 78 749 l 0 972 l 357 972 z "},"W":{"ha":1401,"x_min":0,"x_max":1401,"o":"m 101 401 l 778 938 l 1233 322 l 1150 0 l 1094 0 l 708 522 l 54 0 l 0 0 l 101 401 m 1401 972 l 1306 601 l 1031 972 l 1401 972 m 151 601 l 244 972 l 611 972 l 151 601 z "},"X":{"ha":1410,"x_min":0,"x_max":1410,"o":"m 258 972 l 313 972 l 708 449 l 1356 972 l 1410 972 l 1333 649 l 851 260 l 958 118 l 1268 369 l 1179 0 l 671 0 l 179 649 l 258 972 m 0 0 l 146 481 l 517 0 l 0 0 z "},"Y":{"ha":838,"x_min":0,"x_max":832,"o":"m 61 131 l 693 972 l 832 972 l 731 536 l 326 0 l 93 0 l 61 131 m 156 972 l 335 731 l 164 499 l 0 972 l 156 972 z "},"Z":{"ha":1060,"x_min":0,"x_max":1063,"o":"m 726 971 l 114 478 l 233 971 l 726 971 m 1063 972 l 985 650 l 346 136 l 503 136 l 946 493 l 826 0 l 0 0 l 79 303 l 740 836 l 631 836 l 799 972 l 1063 972 z "},"a":{"ha":946,"x_min":0,"x_max":949,"o":"m 132 536 l 138 556 l 607 972 l 949 558 l 804 0 l 536 0 l 132 536 m 0 0 l 65 265 l 265 0 l 0 0 z "},"b":{"ha":994,"x_min":0,"x_max":997,"o":"m 239 972 l 735 972 l 997 676 l 743 465 l 890 254 l 611 0 l 604 0 l 146 594 l 239 972 m 0 0 l 78 317 l 321 0 l 0 0 z "},"c":{"ha":1063,"x_min":0,"x_max":1061,"o":"m 0 0 l 235 972 l 543 972 l 365 232 l 875 232 l 824 0 l 0 0 m 656 826 l 690 972 l 1061 972 l 1026 826 l 656 826 z "},"d":{"ha":992,"x_min":0,"x_max":993,"o":"m 764 972 l 993 678 l 871 192 l 613 0 l 147 601 l 239 972 l 764 972 m 81 326 l 332 0 l 0 0 l 81 326 z "},"e":{"ha":1060,"x_min":0,"x_max":1061,"o":"m 235 972 l 543 972 l 453 597 l 608 597 l 553 374 l 399 374 l 342 143 l 858 143 l 822 0 l 0 0 l 235 972 m 690 972 l 1061 972 l 1026 826 l 656 826 l 690 972 z "},"f":{"ha":1060,"x_min":0,"x_max":1060,"o":"m 1060 972 l 983 657 l 157 657 l 232 972 l 1060 972 m 772 474 l 739 339 l 388 339 l 308 0 l 0 0 l 85 361 l 113 474 l 772 474 z "},"g":{"ha":1064,"x_min":0,"x_max":1061,"o":"m 908 561 l 949 506 l 824 3 l 456 3 l 594 561 l 908 561 m 1061 972 l 1026 826 l 508 826 l 308 0 l 0 0 l 235 972 l 1061 972 z "},"h":{"ha":1065,"x_min":0,"x_max":1065,"o":"m 428 547 l 592 547 l 694 972 l 1065 972 l 828 0 l 460 0 l 558 411 l 394 411 l 428 547 m 0 0 l 239 972 l 465 972 l 231 0 l 0 0 z "},"i":{"ha":606,"x_min":0,"x_max":607,"o":"m 607 972 l 368 0 l 0 0 l 235 972 l 607 972 z "},"j":{"ha":932,"x_min":0,"x_max":932,"o":"m 607 972 l 401 136 l 861 136 l 828 0 l 0 0 l 235 972 l 607 972 m 932 450 l 889 274 l 665 274 l 708 450 l 932 450 z "},"k":{"ha":1104,"x_min":0,"x_max":1107,"o":"m 239 972 l 692 972 l 403 754 l 478 649 l 906 972 l 1107 972 l 1071 826 l 597 469 l 939 0 l 476 0 l 122 501 l 239 972 m 0 0 l 82 335 l 318 0 l 0 0 z "},"l":{"ha":863,"x_min":0,"x_max":861,"o":"m 607 972 l 401 136 l 861 136 l 828 0 l 0 0 l 235 972 l 607 972 z "},"m":{"ha":1390,"x_min":0,"x_max":1388,"o":"m 239 972 l 293 972 l 688 450 l 1333 972 l 1388 972 l 1293 571 l 624 35 l 160 650 l 239 972 m 90 371 l 371 0 l 0 0 l 90 371 m 792 0 l 1246 371 l 1158 0 l 792 0 z "},"n":{"ha":1142,"x_min":0,"x_max":1143,"o":"m 253 971 l 300 971 l 932 131 l 900 0 l 667 0 l 169 658 l 253 971 m 0 0 l 128 494 l 514 0 l 0 0 m 739 686 l 1089 972 l 1143 972 l 986 346 l 739 686 z "},"o":{"ha":951,"x_min":0,"x_max":954,"o":"m 721 972 l 954 596 l 826 71 l 289 972 l 721 972 m 143 954 l 710 0 l 194 0 l 0 371 l 143 954 z "},"p":{"ha":1068,"x_min":0,"x_max":1071,"o":"m 175 711 l 617 126 l 331 126 l 303 0 l 0 0 l 175 711 m 1071 972 l 865 165 l 363 832 l 397 972 l 1071 972 z "},"q":{"ha":1068,"x_min":0,"x_max":1065,"o":"m 1065 972 l 919 379 l 1058 17 l 390 972 l 1065 972 m 238 967 l 911 1 l 828 1 l 828 0 l 0 0 l 238 967 z "},"r":{"ha":1056,"x_min":0,"x_max":1056,"o":"m 239 972 l 450 668 l 303 0 l 0 0 l 239 972 m 1056 972 l 894 314 l 421 972 l 1056 972 m 624 424 l 924 0 l 524 0 l 624 424 z "},"s":{"ha":1069,"x_min":0,"x_max":1069,"o":"m 0 0 l 121 492 l 389 138 l 553 138 l 165 650 l 244 972 l 507 972 l 610 836 l 401 836 l 881 203 l 832 1 l 492 1 l 493 0 l 0 0 m 576 972 l 1069 972 l 949 481 l 576 972 z "},"t":{"ha":864,"x_min":0,"x_max":864,"o":"m 864 972 l 810 749 l 0 749 l 54 972 l 864 972 m 551 614 l 400 0 l 33 0 l 182 614 l 551 614 z "},"u":{"ha":1064,"x_min":-3,"x_max":1064,"o":"m 247 972 l 383 972 l 213 300 l 436 300 l 607 972 l 1064 972 l 936 469 l 326 0 l -3 0 l 247 972 m 882 257 l 817 0 l 549 0 l 882 257 z "},"v":{"ha":1151,"x_min":0,"x_max":1151,"o":"m 629 972 l 1151 972 l 417 0 l 339 0 l 139 575 l 629 972 m 357 972 l 78 749 l 0 972 l 357 972 z "},"w":{"ha":1401,"x_min":0,"x_max":1401,"o":"m 101 401 l 778 938 l 1233 322 l 1150 0 l 1094 0 l 708 522 l 54 0 l 0 0 l 101 401 m 1401 972 l 1306 601 l 1031 972 l 1401 972 m 151 601 l 244 972 l 611 972 l 151 601 z "},"x":{"ha":1410,"x_min":0,"x_max":1410,"o":"m 258 972 l 313 972 l 708 449 l 1356 972 l 1410 972 l 1333 649 l 851 260 l 958 118 l 1268 369 l 1179 0 l 671 0 l 179 649 l 258 972 m 0 0 l 146 481 l 517 0 l 0 0 z "},"y":{"ha":838,"x_min":0,"x_max":832,"o":"m 61 131 l 693 972 l 832 972 l 731 536 l 326 0 l 93 0 l 61 131 m 156 972 l 335 731 l 164 499 l 0 972 l 156 972 z "},"z":{"ha":1060,"x_min":0,"x_max":1063,"o":"m 726 971 l 114 478 l 233 971 l 726 971 m 1063 972 l 985 650 l 346 136 l 503 136 l 946 493 l 826 0 l 0 0 l 79 303 l 740 836 l 631 836 l 799 972 l 1063 972 z "}}}
